<?xml version="1.0" encoding="utf-8"?>
<!-- Generator: Adobe Illustrator 24.1.2, SVG Export Plug-In . SVG Version: 6.00 Build 0)  -->
<svg version="1.1" id="Layer_1" xmlns="http://www.w3.org/2000/svg" xmlns:xlink="http://www.w3.org/1999/xlink" x="0px" y="0px"
	 viewBox="0 0 144 144" style="enable-background:new 0 0 144 144;" xml:space="preserve">
<style type="text/css">
	.st0{fill:#FFFFFF;}
</style>
<path class="st0" d="M132.05,48.11h-13.06l-10.43-30.54c-0.72-2.1-3.21-3.57-6.06-3.57H41.53c-2.81,0-5.27,1.42-6.03,3.48
	L24.24,48.11H11.07c-5.8,0-10.03,5.48-8.57,11.09l16.73,64.39c1.01,3.91,4.54,6.63,8.57,6.63h86.24c3.97,0,7.46-2.65,8.53-6.47
	l18.01-64.39C142.16,53.71,137.92,48.11,132.05,48.11z M39.49,32.88c0.67-1.83,2.87-3.1,5.36-3.1h54.23c2.54,0,4.75,1.3,5.39,3.17
	l4.42,15.16H34.54L39.49,32.88z M54.31,103.63c0,3.81-3.09,6.91-6.91,6.91h0c-3.81,0-6.91-3.09-6.91-6.91V79.36
	c0-3.81,3.09-6.91,6.91-6.91h0c3.81,0,6.91,3.09,6.91,6.91V103.63z M79.17,103.63c0,3.81-3.09,6.91-6.91,6.91
	c-3.81,0-6.91-3.09-6.91-6.91V79.36c0-3.81,3.09-6.91,6.91-6.91c3.82,0,6.91,3.09,6.91,6.91V103.63z M104.03,103.63
	c0,3.81-3.09,6.91-6.91,6.91c-3.81,0-6.91-3.09-6.91-6.91V79.36c0-3.81,3.09-6.91,6.91-6.91c3.82,0,6.91,3.09,6.91,6.91V103.63z"/>
</svg>
