<?xml version="1.0" encoding="utf-8"?>
<!-- Generator: Adobe Illustrator 24.1.2, SVG Export Plug-In . SVG Version: 6.00 Build 0)  -->
<svg version="1.1" id="Layer_1" xmlns="http://www.w3.org/2000/svg" xmlns:xlink="http://www.w3.org/1999/xlink" x="0px" y="0px"
	 viewBox="0 0 144 144" style="enable-background:new 0 0 144 144;" xml:space="preserve">
<style type="text/css">
	.st0{fill:#FFFFFF;}
</style>
<path class="st0" d="M138.65,34.34c-1.24-3.36-5.6-15.14-17.52-20.75c-6.86-3.23-13.11-2.95-17.58-2.7
	c-15.39,0.86-26.6,8.96-31.83,13.41c-5.24-4.45-16.44-12.54-31.83-13.41c-4.47-0.25-10.73-0.53-17.58,2.7
	C10.39,19.21,6.03,30.98,4.79,34.34C0.09,47.02,3.06,58.5,4.59,64.13c5.2,19.08,18.03,30.84,41.56,51.89
	c10.44,9.34,19.46,16.41,25.46,20.94v0.17c0.03-0.03,0.08-0.06,0.11-0.08c0.04,0.03,0.08,0.06,0.11,0.08v-0.17
	c6-4.53,15.02-11.61,25.46-20.94c23.53-21.04,36.35-32.81,41.56-51.89C140.38,58.5,143.35,47.02,138.65,34.34z"/>
</svg>
