<?xml version="1.0" encoding="utf-8"?>
<!-- Generator: Adobe Illustrator 24.1.2, SVG Export Plug-In . SVG Version: 6.00 Build 0)  -->
<svg version="1.1" id="Layer_1" xmlns="http://www.w3.org/2000/svg" xmlns:xlink="http://www.w3.org/1999/xlink" x="0px" y="0px"
	 viewBox="0 0 144 144" style="enable-background:new 0 0 144 144;" xml:space="preserve">
<style type="text/css">
	.st0{fill:#FFFFFF;}
</style>
<path class="st0" d="M139.73,65.08L76.49,7.97c-2.55-2.3-6.43-2.3-8.98,0L4.27,65.08c-4.55,4.11-1.65,11.68,4.49,11.68h5v55.27
	c0,2.78,2.26,5.04,5.04,5.04h30.4c2.78,0,5.04-2.26,5.04-5.04V95.45c0-2.78,2.26-5.04,5.04-5.04h27.54c2.78,0,5.04,2.26,5.04,5.04
	v36.57c0,2.78,2.26,5.04,5.04,5.04h28.29c2.78,0,5.04-2.26,5.04-5.04V76.75h5C141.38,76.75,144.29,69.19,139.73,65.08z"/>
</svg>
