<?xml version="1.0" encoding="utf-8"?>
<!-- Generator: Adobe Illustrator 24.1.2, SVG Export Plug-In . SVG Version: 6.00 Build 0)  -->
<svg version="1.1" id="Layer_1" xmlns="http://www.w3.org/2000/svg" xmlns:xlink="http://www.w3.org/1999/xlink" x="0px" y="0px"
	 viewBox="0 0 144 144" style="enable-background:new 0 0 144 144;" xml:space="preserve">
<style type="text/css">
	.st0{fill:#FFFFFF;}
</style>
<g>
	<path class="st0" d="M71.24,2.13C32.34,2.13,0.8,33.67,0.8,72.57s31.54,70.44,70.44,70.44s70.44-31.54,70.44-70.44
		C141.68,33.66,110.15,2.13,71.24,2.13z M95.35,45.57c0,12.85-10.41,23.26-23.26,23.26S48.83,58.42,48.83,45.57
		s10.41-23.26,23.26-23.26C84.93,22.32,95.35,32.73,95.35,45.57z M24.25,105.26c0,0,43.89-40.37,95.23,0
		C119.48,105.26,75.16,163.19,24.25,105.26z"/>
</g>
</svg>
